<svg width="1920" height="800" viewBox="0 0 1920 800" fill="none" xmlns="http://www.w3.org/2000/svg">
  <defs>
    <linearGradient id="heroGradient" x1="0%" y1="0%" x2="100%" y2="100%">
      <stop offset="0%" style="stop-color:#f8fafc;stop-opacity:1" />
      <stop offset="50%" style="stop-color:#e2e8f0;stop-opacity:1" />
      <stop offset="100%" style="stop-color:#cbd5e1;stop-opacity:1" />
    </linearGradient>
    <linearGradient id="accentGradient" x1="0%" y1="0%" x2="100%" y2="100%">
      <stop offset="0%" style="stop-color:#3b82f6;stop-opacity:0.1" />
      <stop offset="100%" style="stop-color:#8b5cf6;stop-opacity:0.1" />
    </linearGradient>
  </defs>
  
  <!-- Base gradient background -->
  <rect width="1920" height="800" fill="url(#heroGradient)"/>
  
  <!-- Abstract geometric shapes for professional consulting theme -->
  <circle cx="300" cy="150" r="80" fill="url(#accentGradient)" opacity="0.6"/>
  <circle cx="1600" cy="200" r="120" fill="url(#accentGradient)" opacity="0.4"/>
  <circle cx="1400" cy="600" r="90" fill="url(#accentGradient)" opacity="0.5"/>
  
  <!-- Business growth arrow elements -->
  <path d="M100 600 L300 500 L500 400 L700 350 L900 300" stroke="#3b82f6" stroke-width="3" fill="none" opacity="0.3"/>
  <path d="M1200 650 L1400 550 L1600 450 L1800 400" stroke="#8b5cf6" stroke-width="3" fill="none" opacity="0.3"/>
  
  <!-- Subtle grid pattern for structure -->
  <defs>
    <pattern id="grid" width="100" height="100" patternUnits="userSpaceOnUse">
      <path d="M 100 0 L 0 0 0 100" fill="none" stroke="#e2e8f0" stroke-width="1" opacity="0.3"/>
    </pattern>
  </defs>
  <rect width="100%" height="100%" fill="url(#grid)" />
  
  <!-- Professional icons representing consulting services -->
  <!-- Growth chart icon -->
  <g transform="translate(1500, 500)" opacity="0.2">
    <rect x="0" y="30" width="8" height="20" fill="#3b82f6"/>
    <rect x="15" y="20" width="8" height="30" fill="#3b82f6"/>
    <rect x="30" y="10" width="8" height="40" fill="#3b82f6"/>
    <rect x="45" y="0" width="8" height="50" fill="#3b82f6"/>
  </g>
  
  <!-- Lightbulb for innovation -->
  <g transform="translate(200, 300)" opacity="0.15">
    <circle cx="25" cy="20" r="15" fill="none" stroke="#8b5cf6" stroke-width="2"/>
    <rect x="20" y="32" width="10" height="8" fill="none" stroke="#8b5cf6" stroke-width="2"/>
    <path d="M25 5 L25 0 M10 12 L7 9 M40 12 L43 9 M10 28 L7 31 M40 28 L43 31" stroke="#8b5cf6" stroke-width="2"/>
  </g>
  
  <!-- Target/goal icon -->
  <g transform="translate(800, 100)" opacity="0.2">
    <circle cx="25" cy="25" r="20" fill="none" stroke="#3b82f6" stroke-width="2"/>
    <circle cx="25" cy="25" r="12" fill="none" stroke="#3b82f6" stroke-width="2"/>
    <circle cx="25" cy="25" r="4" fill="#3b82f6"/>
  </g>
  
  <!-- Overlaying subtle texture -->
  <rect width="100%" height="100%" fill="url(#accentGradient)" opacity="0.1"/>
</svg>